# xmcd CD database file
#
# Track frame offsets:
#	150
#	575
#	16072
#	31740
#	49287
#	63312
#	79047
#
# Disc length: 1273 seconds
#
# Revision: 0
# Processed by: cddbd v1.5.1PL0 Copyright (c) Steve Scherf et al.
# Submitted via: CDex 1.51
#
DISCID=4404f707
DTITLE=Splitscore - Summerdays
DYEAR=2004
DGENRE=New Age
TTITLE0=01 Intro - gruss Cali
TTITLE1=02 Hallo Hallo
TTITLE2=03 As i broke your heart
TTITLE3=04 Summerdays
TTITLE4=05 Three small words
TTITLE5=06 Es ist vorbei
TTITLE6=07 Yellow press
EXTD=YEAR: 2004
EXTT0=
EXTT1=
EXTT2=
EXTT3=
EXTT4=
EXTT5=
EXTT6=
PLAYORDER=
